{
	"asset":{
		"generator":"Khronos glTF Blender I/O v4.2.57",
		"version":"2.0"
	},
	"scene":0,
	"scenes":[
		{
			"name":"Scene",
			"nodes":[
				0,
				1
			]
		}
	],
	"nodes":[
		{
			"mesh":0,
			"name":"apple"
		},
		{
			"mesh":1,
			"name":"apple_2",
			"translation":[
				0.37205398082733154,
				0,
				0
			]
		}
	],
	"materials":[
		{
			"name":"red",
			"pbrMetallicRoughness":{
				"baseColorFactor":[
					0.9098039269447327,
					0.3333333432674408,
					0.32549020648002625,
					1
				]
			}
		},
		{
			"name":"brown",
			"pbrMetallicRoughness":{
				"baseColorFactor":[
					0.8274509906768799,
					0.5647059082984924,
					0.40392157435417175,
					1
				]
			}
		},
		{
			"name":"green",
			"pbrMetallicRoughness":{
				"baseColorFactor":[
					0.34117648005485535,
					0.7372549176216125,
					0.5921568870544434,
					1
				]
			}
		},
		{
			"name":"red.001",
			"pbrMetallicRoughness":{
				"baseColorFactor":[
					0.9098039269447327,
					0.3333333432674408,
					0.32549020648002625,
					1
				]
			}
		},
		{
			"name":"brown.001",
			"pbrMetallicRoughness":{
				"baseColorFactor":[
					0.8274509906768799,
					0.5647059082984924,
					0.40392157435417175,
					1
				]
			}
		},
		{
			"name":"green.001",
			"pbrMetallicRoughness":{
				"baseColorFactor":[
					0.34117648005485535,
					0.7372549176216125,
					0.5921568870544434,
					1
				]
			}
		}
	],
	"meshes":[
		{
			"name":"Mesh apple",
			"primitives":[
				{
					"attributes":{
						"POSITION":0,
						"NORMAL":1,
						"TEXCOORD_0":2
					},
					"indices":3,
					"material":0
				},
				{
					"attributes":{
						"POSITION":4,
						"NORMAL":5,
						"TEXCOORD_0":6
					},
					"indices":7,
					"material":1
				},
				{
					"attributes":{
						"POSITION":8,
						"NORMAL":9,
						"TEXCOORD_0":10
					},
					"indices":11,
					"material":2
				}
			]
		},
		{
			"name":"Mesh apple.001",
			"primitives":[
				{
					"attributes":{
						"POSITION":12,
						"NORMAL":13,
						"TEXCOORD_0":14
					},
					"indices":3,
					"material":3
				},
				{
					"attributes":{
						"POSITION":15,
						"NORMAL":16,
						"TEXCOORD_0":17
					},
					"indices":7,
					"material":4
				},
				{
					"attributes":{
						"POSITION":18,
						"NORMAL":19,
						"TEXCOORD_0":20
					},
					"indices":11,
					"material":5
				}
			]
		}
	],
	"accessors":[
		{
			"bufferView":0,
			"componentType":5126,
			"count":196,
			"max":[
				0.09814728051424026,
				0.15701599419116974,
				0.09814728051424026
			],
			"min":[
				-0.09814728051424026,
				0,
				-0.09814728051424026
			],
			"type":"VEC3"
		},
		{
			"bufferView":1,
			"componentType":5126,
			"count":196,
			"type":"VEC3"
		},
		{
			"bufferView":2,
			"componentType":5126,
			"count":196,
			"type":"VEC2"
		},
		{
			"bufferView":3,
			"componentType":5123,
			"count":342,
			"type":"SCALAR"
		},
		{
			"bufferView":4,
			"componentType":5126,
			"count":20,
			"max":[
				0.009609599597752094,
				0.19075341522693634,
				0.009609599597752094
			],
			"min":[
				-0.009609599597752094,
				0.1470160037279129,
				-0.009609599597752094
			],
			"type":"VEC3"
		},
		{
			"bufferView":5,
			"componentType":5126,
			"count":20,
			"type":"VEC3"
		},
		{
			"bufferView":6,
			"componentType":5126,
			"count":20,
			"type":"VEC2"
		},
		{
			"bufferView":7,
			"componentType":5123,
			"count":30,
			"type":"SCALAR"
		},
		{
			"bufferView":8,
			"componentType":5126,
			"count":36,
			"max":[
				0.03240000084042549,
				0.1767577826976776,
				0.09483376145362854
			],
			"min":[
				-0.03240000084042549,
				0.16184981167316437,
				0.007495487574487925
			],
			"type":"VEC3"
		},
		{
			"bufferView":9,
			"componentType":5126,
			"count":36,
			"type":"VEC3"
		},
		{
			"bufferView":10,
			"componentType":5126,
			"count":36,
			"type":"VEC2"
		},
		{
			"bufferView":11,
			"componentType":5123,
			"count":36,
			"type":"SCALAR"
		},
		{
			"bufferView":12,
			"componentType":5126,
			"count":196,
			"max":[
				0.09814728051424026,
				0.15701599419116974,
				0.09814728051424026
			],
			"min":[
				-0.09814728051424026,
				0,
				-0.09814728051424026
			],
			"type":"VEC3"
		},
		{
			"bufferView":13,
			"componentType":5126,
			"count":196,
			"type":"VEC3"
		},
		{
			"bufferView":14,
			"componentType":5126,
			"count":196,
			"type":"VEC2"
		},
		{
			"bufferView":15,
			"componentType":5126,
			"count":20,
			"max":[
				0.009609599597752094,
				0.19075341522693634,
				0.009609599597752094
			],
			"min":[
				-0.009609599597752094,
				0.1470160037279129,
				-0.009609599597752094
			],
			"type":"VEC3"
		},
		{
			"bufferView":16,
			"componentType":5126,
			"count":20,
			"type":"VEC3"
		},
		{
			"bufferView":17,
			"componentType":5126,
			"count":20,
			"type":"VEC2"
		},
		{
			"bufferView":18,
			"componentType":5126,
			"count":36,
			"max":[
				0.03240000084042549,
				0.1767577826976776,
				0.09483376145362854
			],
			"min":[
				-0.03240000084042549,
				0.16184981167316437,
				0.007495487574487925
			],
			"type":"VEC3"
		},
		{
			"bufferView":19,
			"componentType":5126,
			"count":36,
			"type":"VEC3"
		},
		{
			"bufferView":20,
			"componentType":5126,
			"count":36,
			"type":"VEC2"
		}
	],
	"bufferViews":[
		{
			"buffer":0,
			"byteLength":2352,
			"byteOffset":0,
			"target":34962
		},
		{
			"buffer":0,
			"byteLength":2352,
			"byteOffset":2352,
			"target":34962
		},
		{
			"buffer":0,
			"byteLength":1568,
			"byteOffset":4704,
			"target":34962
		},
		{
			"buffer":0,
			"byteLength":684,
			"byteOffset":6272,
			"target":34963
		},
		{
			"buffer":0,
			"byteLength":240,
			"byteOffset":6956,
			"target":34962
		},
		{
			"buffer":0,
			"byteLength":240,
			"byteOffset":7196,
			"target":34962
		},
		{
			"buffer":0,
			"byteLength":160,
			"byteOffset":7436,
			"target":34962
		},
		{
			"buffer":0,
			"byteLength":60,
			"byteOffset":7596,
			"target":34963
		},
		{
			"buffer":0,
			"byteLength":432,
			"byteOffset":7656,
			"target":34962
		},
		{
			"buffer":0,
			"byteLength":432,
			"byteOffset":8088,
			"target":34962
		},
		{
			"buffer":0,
			"byteLength":288,
			"byteOffset":8520,
			"target":34962
		},
		{
			"buffer":0,
			"byteLength":72,
			"byteOffset":8808,
			"target":34963
		},
		{
			"buffer":0,
			"byteLength":2352,
			"byteOffset":8880,
			"target":34962
		},
		{
			"buffer":0,
			"byteLength":2352,
			"byteOffset":11232,
			"target":34962
		},
		{
			"buffer":0,
			"byteLength":1568,
			"byteOffset":13584,
			"target":34962
		},
		{
			"buffer":0,
			"byteLength":240,
			"byteOffset":15152,
			"target":34962
		},
		{
			"buffer":0,
			"byteLength":240,
			"byteOffset":15392,
			"target":34962
		},
		{
			"buffer":0,
			"byteLength":160,
			"byteOffset":15632,
			"target":34962
		},
		{
			"buffer":0,
			"byteLength":432,
			"byteOffset":15792,
			"target":34962
		},
		{
			"buffer":0,
			"byteLength":432,
			"byteOffset":16224,
			"target":34962
		},
		{
			"buffer":0,
			"byteLength":288,
			"byteOffset":16656,
			"target":34962
		}
	],
	"buffers":[
		{
			"byteLength":16944,
			"uri":"apple.bin"
		}
	]
}
